<mxfile host="app.diagrams.net" modified="2024-05-02T16:44:45.407Z" agent="Mozilla/5.0 (X11; Ubuntu; Linux x86_64; rv:125.0) Gecko/20100101 Firefox/125.0" version="24.3.1" etag="IpAiUbgiG3SzOuvoUsN8" type="github">
  <diagram name="Page-1" id="PJYW2JXLkbI9K7eJm3yF">
    <mxGraphModel>
      <root>
        <mxCell id="0" />
        <mxCell id="1" parent="0" />
      </root>
    </mxGraphModel>
  </diagram>
</mxfile>
